<svg width="556" height="180" viewBox="0 0 556 180" fill="none" xmlns="http://www.w3.org/2000/svg">
<path d="M121.763 179.304H80.3135V102.772H52.0518V179.304L30.6377 163.888V16.8496L22.0781 20.4707V157.726L10.6035 149.465V26.8711L0 21.4971L10.6035 17.0645L52.0518 0V70.0498H80.3135V17.0645L121.763 0V179.304ZM323.567 33.5439H295.079V71.3057H323.567V103.41H295.079V146.093H323.203L357.918 179.304H253.591V0.209961H358.281L323.567 33.5439ZM244.04 179.094H217.639V179.24H159.538L159.605 179.094H130.197V16.79L173.321 0V149.407L178.731 137.698H200.916V16.79L244.04 0V179.094ZM396.148 0C409.613 1.3205e-05 420.981 2.51244 430.253 7.53711C439.605 12.482 446.781 19.6601 451.779 29.0713L418.4 62.6885C418.803 55.1118 418.32 49.1701 416.949 44.8633C415.582 40.487 409.721 35.674 409.693 35.6514C405.191 32.7026 401.792 32.8994 396.148 32.8994C392.278 32.8994 389.013 33.6575 386.353 35.1729C383.692 36.6882 381.555 39.2007 379.942 42.71C378.33 46.1395 377.161 50.6861 376.436 56.3486C375.71 62.0113 375.348 68.9503 375.348 77.165V101.69C375.348 110.065 375.629 117.083 376.193 122.746C376.758 128.409 377.806 132.995 379.338 136.504C380.95 139.933 383.128 142.406 385.869 143.921C388.691 145.436 392.319 146.194 396.753 146.194C401.429 146.194 405.42 145.436 408.726 143.921C412.031 142.326 414.531 139.494 416.224 135.427C417.917 131.279 418.562 125.377 418.159 117.721L451.779 151.219C446.619 160.391 439.323 167.33 429.89 172.035C420.457 176.741 409.411 179.094 396.753 179.094C386.514 179.094 377.443 177.339 369.542 173.83C361.641 170.321 354.99 165.216 349.588 158.517C344.186 151.817 340.114 143.722 337.373 134.23C334.632 124.66 333.261 113.813 333.261 101.69V77.4043C333.261 65.361 334.713 54.5532 337.615 44.9824C340.598 35.4118 344.791 27.2766 350.192 20.5771C355.675 13.8776 362.286 8.77296 370.026 5.26367C377.847 1.7545 386.554 0 396.148 0ZM491.687 0C499.045 3.19877e-05 505.919 0.957753 512.309 2.87305C518.795 4.70862 524.654 7.58168 529.882 11.4922C535.207 15.3231 539.758 20.1524 543.534 25.9785C547.31 31.8045 550.166 38.7078 552.103 46.6885C554.136 54.5897 555.152 63.5689 555.152 73.625V105.469C555.152 117.999 553.603 128.893 550.505 138.151C547.407 147.409 543.001 155.071 537.289 161.137C531.674 167.202 524.993 171.711 517.247 174.664C509.501 177.617 501.029 179.094 491.831 179.094H420.765C427.694 177.495 434.029 174.897 439.766 172.035C449.198 167.33 456.495 160.391 461.655 151.219L428.689 118.373C428.28 114.28 428.074 109.979 428.074 105.469V73.625C428.074 69.7352 428.222 66.0085 428.517 62.4453L461.655 29.0713C458.568 23.2585 454.649 18.2984 449.9 14.1895C454.767 9.98755 460.224 6.73487 466.271 4.42969C474.016 1.47673 482.489 1.63321e-05 491.687 0ZM475.799 115.99C475.908 119.375 476.12 122.453 476.437 125.222C477.017 129.372 477.744 132.924 478.615 135.877C479.487 138.75 480.601 141.105 481.956 142.94C483.311 144.696 484.812 145.972 486.458 146.771C488.201 147.569 489.992 147.968 491.831 147.968C494.155 147.968 496.237 147.33 498.076 146.053C500.013 144.776 501.707 142.7 503.159 139.827C504.611 136.874 505.725 133.003 506.5 128.215C507.275 123.346 507.662 117.4 507.662 110.377V72.5469L475.799 115.99ZM491.687 31.126C489.266 31.126 487.087 31.8044 485.15 33.1611C483.214 34.4381 481.52 36.5137 480.067 39.3867C478.615 42.2598 477.502 46.0906 476.728 50.8789C476.05 55.6675 475.711 61.5341 475.711 68.4775V108.491L507.627 65.0615C507.547 60.8829 507.318 57.1529 506.936 53.8721C506.451 49.722 505.725 46.2101 504.757 43.3369C503.789 40.4638 502.627 38.1493 501.271 36.3936C500.013 34.558 498.56 33.2405 496.914 32.4424C495.268 31.5648 493.526 31.126 491.687 31.126Z" fill="#F2F2F2"/>
</svg>
