<svg width="649" height="343" viewBox="0 0 649 343" fill="none" xmlns="http://www.w3.org/2000/svg">
<g filter="url(#filter0_d_519_495)">
<path d="M227.118 242.879C227.944 242.879 228.695 242.946 229.37 243.08C230.045 243.199 230.582 243.362 230.981 243.569L231.022 243.547V243.592H231.043L231.022 243.658V247.221H229.494V244.839C229.15 244.75 228.771 244.676 228.357 244.616C227.944 244.557 227.503 244.527 227.035 244.527C226.581 244.527 226.168 244.586 225.796 244.705C225.438 244.824 225.128 244.988 224.866 245.195C224.619 245.388 224.426 245.618 224.288 245.885C224.15 246.152 224.082 246.435 224.082 246.731C224.082 247.31 224.268 247.793 224.64 248.179C225.025 248.565 225.5 248.914 226.064 249.226C226.629 249.522 227.242 249.819 227.903 250.116C228.564 250.413 229.177 250.761 229.741 251.162C230.306 251.548 230.775 252.016 231.146 252.565C231.532 253.115 231.725 253.797 231.725 254.613C231.725 255.281 231.607 255.883 231.373 256.417C231.153 256.951 230.829 257.412 230.402 257.798C229.989 258.184 229.473 258.481 228.854 258.688C228.248 258.896 227.559 259 226.788 259C226.265 259 225.769 258.955 225.301 258.866C224.833 258.777 224.398 258.666 223.999 258.532C223.613 258.399 223.262 258.258 222.945 258.109C222.642 257.961 222.402 257.834 222.223 257.73L222.243 257.664V254.057H223.771V256.528C224.185 256.766 224.647 256.967 225.156 257.13C225.679 257.278 226.202 257.353 226.726 257.353C227.18 257.353 227.607 257.308 228.007 257.219C228.406 257.115 228.75 256.959 229.039 256.751C229.342 256.528 229.576 256.253 229.741 255.927C229.92 255.6 230.01 255.215 230.01 254.77C230.01 254.161 229.817 253.663 229.432 253.277C229.06 252.891 228.592 252.55 228.027 252.253C227.463 251.956 226.849 251.667 226.188 251.385C225.528 251.103 224.915 250.769 224.351 250.383C223.786 249.997 223.31 249.53 222.925 248.98C222.553 248.416 222.367 247.704 222.367 246.843C222.367 246.234 222.477 245.685 222.697 245.195C222.931 244.705 223.256 244.29 223.669 243.948C224.082 243.607 224.578 243.347 225.156 243.169C225.748 242.976 226.402 242.879 227.118 242.879ZM467.814 242.879C468.778 242.879 469.591 243.072 470.252 243.458C470.927 243.844 471.471 244.393 471.884 245.105C472.297 245.803 472.593 246.65 472.772 247.645C472.951 248.624 473.041 249.722 473.041 250.939C473.041 253.522 472.614 255.512 471.76 256.907C470.92 258.302 469.605 259 467.814 259C466.864 259 466.058 258.807 465.397 258.421C464.737 258.035 464.199 257.493 463.786 256.796C463.373 256.083 463.077 255.237 462.898 254.257C462.719 253.262 462.63 252.157 462.63 250.939C462.63 248.357 463.05 246.368 463.89 244.973C464.743 243.577 466.052 242.879 467.814 242.879ZM320.1 253.032C320.1 253.819 320.169 254.487 320.307 255.036C320.458 255.57 320.672 256.008 320.947 256.35C321.236 256.676 321.595 256.914 322.021 257.062C322.462 257.211 322.972 257.285 323.55 257.285C324.665 257.285 325.457 256.959 325.925 256.306C326.407 255.638 326.648 254.546 326.648 253.032V243.146H328.301V253.545C328.301 254.48 328.183 255.289 327.949 255.972C327.729 256.654 327.412 257.219 326.999 257.664C326.586 258.094 326.083 258.413 325.491 258.621C324.899 258.829 324.245 258.933 323.529 258.933C321.822 258.933 320.534 258.517 319.666 257.686C318.812 256.854 318.386 255.592 318.386 253.9V243.146H320.1V253.032ZM369.565 242.968C370.818 242.968 371.865 243.161 372.705 243.547C373.559 243.933 374.24 244.475 374.75 245.173C375.273 245.856 375.646 246.68 375.866 247.645C376.1 248.609 376.217 249.671 376.217 250.828C376.217 251.882 376.114 252.899 375.907 253.879C375.701 254.844 375.342 255.705 374.833 256.462C374.324 257.204 373.635 257.805 372.768 258.265C371.914 258.71 370.839 258.933 369.545 258.933C369.366 258.933 369.132 258.926 368.843 258.911C368.554 258.911 368.257 258.896 367.954 258.866C367.651 258.851 367.362 258.836 367.087 258.821C366.811 258.806 366.605 258.785 366.467 258.755V243.146C366.99 243.072 367.534 243.028 368.099 243.013C368.677 242.983 369.166 242.968 369.565 242.968ZM184.079 244.794H177.304V249.893H183.562V251.54H177.304V257.085H184.183V258.732H175.589V243.146H184.079V244.794ZM280.466 247.221H278.938V244.794H275.942V257.085H278.215V258.732H271.956V257.085H274.228V244.794H271.253V247.221H269.725V243.146H280.466V247.221ZM424.463 244.794H420.353V257.085H424.463V258.732H414.548V257.085H418.638V244.794H414.548V243.146H424.463V244.794ZM467.814 244.527C466.644 244.527 465.79 245.054 465.253 246.107C464.716 247.146 464.447 248.757 464.447 250.939C464.447 251.8 464.495 252.617 464.592 253.389C464.702 254.161 464.888 254.844 465.149 255.438C465.411 256.016 465.756 256.484 466.183 256.84C466.609 257.181 467.154 257.353 467.814 257.353C468.999 257.353 469.859 256.833 470.396 255.794C470.947 254.755 471.223 253.136 471.223 250.939C471.223 250.093 471.168 249.285 471.058 248.513C470.961 247.726 470.782 247.043 470.521 246.464C470.259 245.87 469.907 245.403 469.467 245.062C469.026 244.705 468.475 244.527 467.814 244.527ZM369.648 244.616C369.456 244.616 369.207 244.623 368.904 244.638C368.615 244.653 368.374 244.683 368.182 244.728V257.196C368.25 257.211 368.347 257.226 368.471 257.241C368.608 257.241 368.746 257.248 368.884 257.263C369.021 257.263 369.152 257.27 369.276 257.285H369.606C370.612 257.285 371.424 257.107 372.044 256.751C372.677 256.395 373.166 255.92 373.511 255.326C373.855 254.718 374.089 254.027 374.213 253.255C374.337 252.468 374.399 251.659 374.399 250.828C374.399 250.101 374.344 249.374 374.234 248.646C374.124 247.904 373.896 247.236 373.552 246.643C373.221 246.049 372.74 245.565 372.106 245.194C371.487 244.808 370.667 244.616 369.648 244.616ZM327.02 239.828L323.653 241.988H322.228L324.665 239.361H327.02V239.828ZM187.128 233.753H150.661V166.42H125.796V233.753L106.955 220.189V90.8242L99.4248 94.0098V214.768L89.3291 207.5V99.6416L80 94.9131L89.3291 91.0127L125.796 76V137.631H150.661V91.0127L187.128 76V233.753ZM364.677 105.512H339.612V138.735H364.677V166.98H339.612V204.533H364.356L394.898 233.753H303.111V76.1846H395.219L364.677 105.512ZM294.709 233.568H271.48V233.697H220.363L220.423 233.568H194.549V90.7725L232.49 76V207.449L237.25 197.147H256.768V90.7725L294.709 76V233.568ZM428.534 76C440.38 76 450.382 78.2103 458.539 82.6309C466.767 86.9814 473.081 93.2971 477.479 101.577L448.112 131.154C448.467 124.488 448.041 119.26 446.835 115.471C445.629 111.611 440.451 107.366 440.451 107.366C436.49 104.772 433.5 104.945 428.534 104.945C425.129 104.945 422.257 105.612 419.916 106.945C417.575 108.279 415.695 110.489 414.276 113.576C412.858 116.593 411.83 120.593 411.191 125.575C410.553 130.557 410.233 136.662 410.233 143.89V165.468C410.233 172.835 410.482 179.01 410.979 183.992C411.475 188.974 412.397 193.009 413.745 196.097C415.164 199.114 417.078 201.29 419.49 202.623C421.973 203.956 425.165 204.623 429.066 204.623C433.181 204.623 436.692 203.956 439.601 202.623C442.509 201.22 444.708 198.728 446.197 195.149C447.687 191.501 448.254 186.308 447.899 179.572L477.479 209.044C472.939 217.113 466.52 223.218 458.221 227.358C449.921 231.498 440.203 233.568 429.066 233.568C420.058 233.568 412.078 232.024 405.126 228.937C398.175 225.849 392.323 221.358 387.57 215.464C382.818 209.57 379.235 202.448 376.823 194.098C374.411 185.677 373.206 176.134 373.206 165.468V144.101C373.206 133.505 374.483 123.997 377.036 115.576C379.661 107.156 383.349 99.9987 388.102 94.1045C392.925 88.2102 398.742 83.7184 405.552 80.6309C412.432 77.5434 420.093 76 428.534 76ZM512.589 76C519.063 76 525.111 76.8431 530.733 78.5283C536.441 80.1433 541.594 82.6707 546.194 86.1113C550.879 89.4817 554.883 93.7298 558.205 98.8555C561.527 103.981 564.04 110.055 565.744 117.077C567.533 124.029 568.428 131.928 568.428 140.775V168.793C568.428 179.817 567.065 189.402 564.339 197.547C561.613 205.692 557.737 212.433 552.711 217.77C547.77 223.106 541.893 227.073 535.078 229.671C528.263 232.269 520.809 233.568 512.717 233.568H450.192C456.289 232.162 461.862 229.876 466.909 227.358C475.208 223.218 481.628 217.113 486.168 209.044L457.164 180.146C456.804 176.546 456.623 172.761 456.623 168.793V140.775C456.623 137.353 456.753 134.075 457.013 130.94L486.168 101.577C483.452 96.4629 480.003 92.0995 475.825 88.4844C480.107 84.7873 484.909 81.9257 490.229 79.8975C497.043 77.2995 504.497 76.0001 512.589 76ZM498.612 178.048C498.709 181.026 498.894 183.734 499.173 186.171C499.684 189.822 500.323 192.947 501.09 195.545C501.856 198.073 502.836 200.145 504.028 201.76C505.221 203.304 506.541 204.428 507.989 205.13C509.522 205.832 511.098 206.184 512.717 206.184C514.761 206.184 516.593 205.621 518.212 204.498C519.915 203.375 521.406 201.549 522.684 199.021C523.961 196.423 524.941 193.018 525.622 188.805C526.304 184.522 526.645 179.29 526.645 173.111V139.827L498.612 178.048ZM512.589 103.385C510.46 103.385 508.543 103.982 506.84 105.176C505.136 106.299 503.645 108.125 502.367 110.652C501.089 113.18 500.11 116.551 499.429 120.764C498.832 124.977 498.534 130.138 498.534 136.247V171.451L526.613 133.242C526.543 129.565 526.343 126.283 526.006 123.396C525.58 119.745 524.941 116.656 524.089 114.128C523.237 111.6 522.215 109.564 521.022 108.02C519.915 106.405 518.637 105.245 517.189 104.543C515.741 103.771 514.207 103.385 512.589 103.385Z" fill="#F2F2F2"/>
</g>
<defs>
<filter id="filter0_d_519_495" x="0" y="0" width="648.428" height="343" filterUnits="userSpaceOnUse" color-interpolation-filters="sRGB">
<feFlood flood-opacity="0" result="BackgroundImageFix"/>
<feColorMatrix in="SourceAlpha" type="matrix" values="0 0 0 0 0 0 0 0 0 0 0 0 0 0 0 0 0 0 127 0" result="hardAlpha"/>
<feOffset dy="4"/>
<feGaussianBlur stdDeviation="40"/>
<feComposite in2="hardAlpha" operator="out"/>
<feColorMatrix type="matrix" values="0 0 0 0 0 0 0 0 0 0 0 0 0 0 0 0 0 0 0.8 0"/>
<feBlend mode="normal" in2="BackgroundImageFix" result="effect1_dropShadow_519_495"/>
<feBlend mode="normal" in="SourceGraphic" in2="effect1_dropShadow_519_495" result="shape"/>
</filter>
</defs>
</svg>
